Coordinates
version=1
nRows=25
nColumns=28
inDegrees=yes

Units are S.I. units (second, meters, Newtons, ...)
Angles are in degrees.

endheader
time	pelvis_tilt	pelvis_list	pelvis_rotation	pelvis_tx	pelvis_ty	pelvis_tz	hip_flexion_r	hip_adduction_r	hip_rotation_r	knee_angle_r	ankle_angle_r	subtalar_angle_r	mtp_angle_r	hip_flexion_l	hip_adduction_l	hip_rotation_l	knee_angle_l	socket_flexion	socket_adduction	socket_rotation	socket_tx	socket_ty	socket_tz	foot_flex	lumbar_extension	lumbar_bending	lumbar_rotation
      0.81250000	     -0.84486544	     -6.08785005	      8.04367627	      0.40893090	      0.98482957	      0.27350171	      8.54032245	     11.59429012	      2.95781379	    -19.86972185	      2.43182606	    -26.50823968	     -3.90753118	     23.41567873	     -8.65491106	     -6.00729014	    -62.62821338	      6.37531826	    -11.17218041	     -9.69885646	      0.00637861	      0.01117320	      0.00706006	     -1.09397953	     -6.74631377	      5.04026742	     -9.18155924
      0.81666667	     -0.90302117	     -5.89155184	      8.02111266	      0.41445153	      0.98596237	      0.27326182	      7.89636451	     11.38835607	      3.06724989	    -19.31087053	      2.36503712	    -26.39986309	     -3.89375836	     24.21471984	     -8.30871109	     -5.84650827	    -62.63681038	      6.26760727	    -11.05547446	     -8.98656880	      0.00649825	      0.01163982	      0.00631947	     -1.12023830	     -6.71802296	      4.80421900	     -9.00919461
      0.82083333	     -0.96236511	     -5.69600944	      7.97498825	      0.41996240	      0.98706203	      0.27309330	      7.28328386	     11.18527563	      3.16457483	    -18.79940874	      2.29313673	    -26.30361926	     -3.88200083	     24.97675501	     -7.96124619	     -5.68494823	    -62.59182519	      6.12590026	    -10.91110485	     -8.35071631	      0.00648055	      0.01204411	      0.00567115	     -1.14237715	     -6.71664622	      4.61307459	     -8.85372578
      0.82500000	     -1.01693892	     -5.50938348	      7.94787419	      0.42549683	      0.98811805	      0.27289125	      6.64852681	     10.98595406	      3.26184602	    -18.25267997	      2.20109642	    -26.20399290	     -3.87071994	     25.73711031	     -7.61414265	     -5.50192508	    -62.51510125	      5.96253816	    -10.78526559	     -7.78633152	      0.00653593	      0.01256883	      0.00504856	     -1.16954806	     -6.69359180	      4.39772597	     -8.68777645
      0.82916667	     -1.07609457	     -5.32335993	      7.92134116	      0.43101676	      0.98914061	      0.27263499	      6.03578402	     10.79164393	      3.35232091	    -17.73297781	      2.09930547	    -26.11478072	     -3.86159503	     26.46879000	     -7.26204283	     -5.32750924	    -62.38503997	      5.76468257	    -10.64401550	     -7.30826647	      0.00653458	      0.01301634	      0.00439839	     -1.18989149	     -6.68060255	      4.21441046	     -8.53288285
      0.83333333	     -1.12574964	     -5.14712637	      7.88682377	      0.43647782	      0.99014497	      0.27235225	      5.41959546	     10.59635075	      3.44005154	    -17.20516626	      1.98317989	    -26.02918408	     -3.85320628	     27.18269451	     -6.90260093	     -5.12872327	    -62.21718746	      5.54161216	    -10.51260532	     -6.90482312	      0.00650844	      0.01355391	      0.00380804	     -1.21244552	     -6.66024353	      4.02588095	     -8.37614379
      0.83750000	     -1.18595250	     -4.96821505	      7.86212631	      0.44206972	      0.99107524	      0.27213720	      4.81510158	     10.41162381	      3.52688978	    -16.69863920	      1.85813933	    -25.95274961	     -3.84623127	     27.86520789	     -6.53773253	     -4.93645751	    -61.99819495	      5.28589493	    -10.36726109	     -6.59221255	      0.00645565	      0.01404936	      0.00341344	     -1.22875238	     -6.64241893	      3.85434460	     -8.22744169
      0.84166667	     -1.23311126	     -4.79237787	      7.83861984	      0.44758101	      0.99202114	      0.27179911	      4.19170059	     10.21334109	      3.61697983	    -16.16202425	      1.70512846	    -25.88170340	     -3.84048916	     28.52089691	     -6.14843130	     -4.70933522	    -61.73609821	      5.00212430	    -10.23854641	     -6.37272653	      0.00639129	      0.01459236	      0.00296172	     -1.24420027	     -6.60901700	      3.67424843	     -8.07098518
      0.84583333	     -1.28520375	     -4.61891821	      7.82782536	      0.45308616	      0.99292151	      0.27150522	      3.59199945	     10.02651449	      3.71051007	    -15.65784909	      1.54871463	    -25.82316172	     -3.83519299	     29.14494907	     -5.76244516	     -4.48430094	    -61.42198632	      4.68365431	    -10.08060282	     -6.22452249	      0.00617329	      0.01510415	      0.00262365	     -1.25650542	     -6.59754592	      3.50891484	     -7.92614359
      0.85000000	     -1.33296311	     -4.44275374	      7.79616842	      0.45864807	      0.99376424	      0.27119304	      2.98354808	      9.83633136	      3.80290038	    -15.14860615	      1.37576895	    -25.77899821	     -3.83164200	     29.72390410	     -5.34964730	     -4.23017766	    -61.06373445	      4.33771243	     -9.92045012	     -6.17334761	      0.00603949	      0.01549616	      0.00240395	     -1.26331181	     -6.57342411	      3.33779658	     -7.78287695
      0.85416667	     -1.37802144	     -4.26373772	      7.76307710	      0.46418529	      0.99458727	      0.27087454	      2.38323999	      9.63867833	      3.89612676	    -14.65474674	      1.19355022	    -25.75292088	     -3.82893734	     30.26241424	     -4.93377661	     -3.96209319	    -60.65279285	      3.95821522	     -9.73071961	     -6.20900977	      0.00580056	      0.01586033	      0.00219952	     -1.26656669	     -6.55720484	      3.17687839	     -7.64840544
      0.85833333	     -1.42057825	     -4.08084623	      7.73547105	      0.46972766	      0.99538502	      0.27050828	      1.77797893	      9.43823115	      4.00718753	    -14.15721408	      0.99535990	    -25.74217206	     -3.82635908	     30.75178244	     -4.49464672	     -3.65370027	    -60.19085966	      3.54644185	     -9.51621708	     -6.33285112	      0.00546013	      0.01615579	      0.00200639	     -1.26582667	     -6.53473973	      3.00961993	     -7.51241732
      0.86250000	     -1.45479823	     -4.01072456	      7.52575855	      0.47502884	      0.99601407	      0.27049646	      1.41074022	      9.36176190	      3.94819080	    -14.06483241	      0.97923109	    -25.75491266	     -3.82730124	     31.28018471	     -4.36127369	     -3.60141002	    -59.75198470	      3.12287590	     -9.36351718	     -6.31033552	      0.00555734	      0.01663018	      0.00148398	     -1.21402676	     -6.65757493	      3.02072173	     -7.49053329
      0.86666667	     -1.54688849	     -3.78529510	      7.62820513	      0.48066908	      0.99662709	      0.27004494	      0.72527235	      9.12580419	      4.25064652	    -13.34664456	      0.77297824	    -25.65687425	     -3.81920990	     31.81670459	     -3.78492501	     -3.19459431	    -59.23655796	      2.67278832	     -9.18332118	     -6.55954849	      0.00524636	      0.01715371	      0.00169401	     -1.27495416	     -6.48308540	      2.74616346	     -7.29405803
      0.87083333	     -1.60271903	     -3.73929128	      7.43957130	      0.48600084	      0.99703528	      0.27009612	      0.39037623	      9.06951539	      4.18615368	    -13.26480655	      0.73951897	    -25.67585702	     -3.82460696	     32.29341862	     -3.65117528	     -3.11887585	    -58.71641897	      2.17485220	     -9.06455244	     -6.59325226	      0.00520960	      0.01730836	      0.00156148	     -1.19421401	     -6.60828389	      2.75653294	     -7.26956723
      0.87500000	     -1.71196528	     -3.47568579	      7.50273004	      0.49179014	      0.99774942	      0.26934509	     -0.32076840	      8.76406998	      4.48676983	    -12.47272984	      0.44832332	    -25.61358264	     -3.83706412	     32.65965307	     -2.93251558	     -2.66561439	    -58.05009226	      1.62872328	     -8.80114592	     -7.10348739	      0.00432826	      0.01759152	      0.00218923	     -1.24472022	     -6.33622967	      2.51789357	     -7.04890803
      0.87916667	     -1.76615789	     -3.44875869	      7.34936815	      0.49704104	      0.99802745	      0.26940544	     -0.61838672	      8.73938397	      4.42775794	    -12.45086872	      0.41735208	    -25.63933721	     -3.84262779	     33.11350693	     -2.82828815	     -2.57846651	    -57.48686341	      1.08507497	     -8.69314669	     -7.12948163	      0.00430788	      0.01779781	      0.00199273	     -1.15243441	     -6.49359340	      2.50197045	     -7.03002118
      0.88333333	     -1.65122217	     -2.80737826	      7.31084843	      0.50300700	      0.99933300	      0.26867252	     -1.58272374	      8.02696265	      4.63385642	    -11.73793564	     -0.41824652	    -26.08065518	     -3.93138692	     32.50125339	     -1.77653742	     -1.28492418	    -56.37475135	      0.37656678	     -7.47900353	     -8.47380015	      0.00083072	      0.01528964	      0.00028416	     -0.99359605	     -6.61679384	      1.83247971	     -6.70014770
      0.88750000	     -1.70310406	     -2.85214088	      7.17418523	      0.50821045	      0.99945963	      0.26872941	     -1.89055864	      8.08703785	      4.62017685	    -11.66567657	     -0.36658106	    -26.08950466	     -3.91557956	     32.97019263	     -1.71505343	     -1.19124776	    -55.78571176	     -0.20630498	     -7.41297880	     -8.47335131	      0.00098111	      0.01572021	      0.00056494	     -1.00447336	     -6.74269829	      1.86698271	     -6.69325557
      0.89166667	     -1.80593348	     -2.80961999	      7.13899460	      0.51391940	      0.99966470	      0.26820083	     -2.48005522	      8.02428149	      4.91122220	    -11.05722471	     -0.31802503	    -26.02710876	     -3.86440696	     33.32490029	     -1.39994899	     -0.91214493	    -55.06832304	     -0.86685695	     -7.25187420	     -8.73529812	      0.00073714	      0.01589073	      0.00104328	     -1.17495102	     -6.47427832	      1.99145889	     -6.60967036
      0.89583333	     -1.76448752	     -2.40971270	      7.02168154	      0.51950503	      1.00037447	      0.26789619	     -3.18601456	      7.59478656	      5.18373890	    -10.56865512	     -0.92539293	    -26.35678586	     -3.88513896	     32.97810671	     -0.77774538	      0.19058529	    -54.04857547	     -1.57848665	     -6.22844126	     -9.74541729	     -0.00191658	      0.01414330	     -0.00079995	     -1.08502697	     -6.69884674	      1.46140831	     -6.36030853
      0.90000000	     -1.83782362	     -2.46716962	      6.92454309	      0.52468046	      1.00030736	      0.26785890	     -3.44894786	      7.66621963	      5.15188771	    -10.54172310	     -0.88692317	    -26.36851615	     -3.87456905	     33.39122337	     -0.71757212	      0.26616500	    -53.39260364	     -2.23411245	     -6.18113619	     -9.72621726	     -0.00201779	      0.01460021	     -0.00039101	     -0.99082420	     -6.78956276	      1.53206368	     -6.35493267
      0.90416667	     -1.95114853	     -2.50675446	      6.82783799	      0.52994898	      1.00016742	      0.26770991	     -3.72238484	      7.70075893	      5.14813893	    -10.42369813	     -0.85490406	    -26.36385327	     -3.86285107	     33.78260675	     -0.61625915	      0.34491404	    -52.69150960	     -2.93076505	     -6.12471121	     -9.72286668	     -0.00226713	      0.01495260	      0.00005685	     -0.92961282	     -6.82274012	      1.62066723	     -6.33730395
      0.90833333	     -2.14566276	     -2.32684780	      6.74318331	      0.53608738	      1.00019752	      0.26698699	     -4.37511738	      7.44709130	      5.59007749	     -9.58028509	     -1.02997457	    -26.24956647	     -3.82158015	     33.82428868	     -0.09225398	      0.73434195	    -51.74368400	     -3.77952025	     -5.85742269	    -10.16929452	     -0.00401027	      0.01434173	      0.00067114	     -0.96928069	     -6.27034333	      1.45840634	     -6.13143683
      0.91250000	     -2.24979870	     -2.34593700	      6.65863600	      0.54115426	      0.99994390	      0.26690286	     -4.58282098	      7.47286371	      5.55298421	     -9.59304699	     -1.03161007	    -26.26810794	     -3.81990209	     34.19753155	     -0.00029835	      0.80285536	    -51.03384653	     -4.48384941	     -5.76449747	    -10.11546727	     -0.00431424	      0.01487086	      0.00100723	     -0.88184733	     -6.41229078	      1.53262943	     -6.11911116
